<?xml version="1.0" encoding="UTF-8"?>
<!DOCTYPE svg PUBLIC "-//W3C//DTD SVG 1.0//EN" "http://www.w3.org/TR/2001/REC-SVG-20010904/DTD/svg10.dtd">
<!-- Creator: CorelDRAW X7 -->
<svg xmlns="http://www.w3.org/2000/svg" xml:space="preserve" width="2.22222in" height="0.277772in" version="1.0" style="shape-rendering:geometricPrecision; text-rendering:geometricPrecision; image-rendering:optimizeQuality; fill-rule:evenodd; clip-rule:evenodd"
viewBox="0 0 1352 169"
 xmlns:xlink="http://www.w3.org/1999/xlink">
 <defs>
  <style type="text/css">
   <![CDATA[
    .fil0 {fill: #0072aa}
   ]]>
  </style>
 </defs>
 <g id="Layer_x0020_1">
  <metadata id="CorelCorpID_0Corel-Layer"/>
  <path class="fil0" d="M0 161l72 0 0 -161 -72 0 0 161zm183 0l0 0 72 0 0 -122 57 0 0 -39 -186 0 0 39 57 0 0 122zm391 -97l0 0c0,-6 0,-11 -1,-15 0,-5 -1,-9 -2,-12 -1,-3 -3,-6 -5,-9 -1,-2 -4,-5 -6,-7 -8,-7 -19,-12 -34,-16 -15,-3 -33,-5 -54,-5 -16,0 -30,1 -42,4 -12,2 -23,5 -31,9 -8,5 -15,9 -21,15 -5,5 -10,11 -13,18 -3,6 -5,12 -6,19 -2,7 -2,13 -2,20 0,10 1,19 4,28 2,9 6,17 11,23 6,7 13,13 22,18 9,5 20,9 32,11 13,3 28,4 46,4 9,0 18,0 27,-1 8,-1 16,-3 24,-5 8,-2 15,-5 22,-8 6,-3 12,-6 17,-11 4,-4 7,-8 9,-12 3,-5 4,-9 5,-14 1,-5 1,-10 1,-14l-74 0c0,10 -3,18 -8,23 -6,5 -14,7 -25,7 -7,0 -13,-1 -18,-4 -5,-3 -9,-6 -11,-11 -3,-4 -6,-10 -7,-15 -1,-6 -2,-13 -2,-19 0,-7 1,-13 2,-19 1,-6 4,-12 7,-16 2,-5 6,-8 11,-11 5,-2 11,-4 18,-4 6,0 12,1 16,3 4,2 8,5 10,10 2,4 4,9 4,16l74 0zm140 39l0 0 28 -56 27 56 -55 0zm-101 62l0 0 71 0 13 -27 89 0 13 27 79 0 -87 -161 -91 0 -87 161zm305 -52l0 0c0,4 1,9 1,13 1,4 2,8 3,11 2,4 4,7 7,11 2,3 6,6 11,8 5,3 10,5 17,7 7,2 16,4 26,5 10,1 21,1 35,1 19,0 36,-1 50,-4 14,-2 25,-6 33,-10 9,-5 15,-10 19,-17 4,-6 6,-13 6,-21 0,-5 -1,-10 -2,-14 -1,-3 -3,-7 -5,-9 -2,-3 -4,-5 -6,-7 -4,-3 -8,-5 -13,-8 -6,-2 -12,-4 -18,-6 -7,-2 -13,-4 -20,-5 -7,-2 -14,-3 -21,-5 -7,-1 -13,-3 -19,-4 -6,-1 -10,-3 -15,-4 -4,-1 -6,-3 -8,-4 -1,-1 -2,-2 -2,-4 -1,-1 -1,-2 -1,-4 0,-4 2,-7 6,-10 4,-2 9,-3 17,-3 5,0 9,0 12,1 4,0 7,2 9,3 3,2 5,4 7,7 1,3 2,7 2,11l71 0c0,-7 -1,-13 -3,-18 -2,-6 -6,-10 -10,-15 -5,-4 -11,-7 -18,-10 -7,-3 -16,-5 -27,-7 -11,-1 -24,-2 -38,-2 -23,0 -42,2 -58,5 -15,4 -26,10 -34,17 -8,8 -12,17 -12,29 0,3 1,6 2,10 0,3 2,6 3,9 2,4 5,6 8,9 3,3 7,5 13,7 5,3 11,5 18,7 6,2 13,3 21,5 7,2 14,3 21,5 6,1 13,3 19,4 5,2 10,3 15,4 4,2 6,3 8,5 1,1 1,2 2,3 1,1 1,3 1,4 0,3 -1,6 -3,8 -2,2 -4,4 -7,5 -3,1 -7,2 -10,3 -4,0 -8,0 -11,0 -5,0 -9,0 -13,-1 -3,-2 -6,-3 -8,-5 -2,-2 -4,-5 -5,-8 -1,-3 -2,-7 -2,-12l-74 0zm269 52l0 0 165 0 0 -34 -95 0 0 -30 88 0 0 -33 -88 0 0 -30 94 0 0 -34 -164 0 0 161z"/>
 </g>
</svg>
